<?xml version="1.0" encoding="UTF-8" standalone="no"?>
<!-- Created with Inkscape (http://www.inkscape.org/) -->

<svg
   width="700"
   height="387.98999"
   viewBox="0 0 185.20867 102.65589"
   version="1.1"
   id="svg5"
   inkscape:version="1.2.1 (9c6d41e, 2022-07-14)"
   sodipodi:docname="logo_header.svg"
   inkscape:export-filename="logo_200x200.svg"
   inkscape:export-xdpi="49.480366"
   inkscape:export-ydpi="49.480366"
   xmlns:inkscape="http://www.inkscape.org/namespaces/inkscape"
   xmlns:sodipodi="http://sodipodi.sourceforge.net/DTD/sodipodi-0.dtd"
   xmlns:xlink="http://www.w3.org/1999/xlink"
   xmlns="http://www.w3.org/2000/svg"
   xmlns:svg="http://www.w3.org/2000/svg">
  <sodipodi:namedview
     id="namedview7"
     pagecolor="#ffffff"
     bordercolor="#000000"
     borderopacity="0.25"
     inkscape:showpageshadow="2"
     inkscape:pageopacity="0.0"
     inkscape:pagecheckerboard="0"
     inkscape:deskcolor="#d1d1d1"
     inkscape:document-units="mm"
     showgrid="true"
     inkscape:zoom="0.62658643"
     inkscape:cx="144.43339"
     inkscape:cy="151.61516"
     inkscape:window-width="1600"
     inkscape:window-height="828"
     inkscape:window-x="0"
     inkscape:window-y="0"
     inkscape:window-maximized="1"
     inkscape:current-layer="g3519">
    <inkscape:grid
       type="xygrid"
       id="grid135"
       dotted="false"
       originx="-12.166413"
       originy="-12.175469"
       enabled="false" />
  </sodipodi:namedview>
  <defs
     id="defs2">
    <inkscape:path-effect
       effect="skeletal"
       id="path-effect3300"
       is_visible="true"
       lpeversion="1"
       pattern="#rect3163"
       copytype="repeated"
       prop_scale="1"
       scale_y_rel="false"
       spacing="6.1"
       normal_offset="0"
       tang_offset="0"
       prop_units="false"
       vertical_pattern="false"
       hide_knot="false"
       fuse_tolerance="0" />
    <pattern
       inkscape:collect="always"
       xlink:href="#pattern3193"
       id="pattern3287"
       patternTransform="matrix(0.26626132,0,0,0.26626132,23.812548,23.812549)" />
    <inkscape:path-effect
       effect="skeletal"
       id="path-effect3263"
       is_visible="true"
       lpeversion="1"
       pattern="#rect3163"
       copytype="repeated"
       prop_scale="1"
       scale_y_rel="false"
       spacing="3.3"
       normal_offset="0"
       tang_offset="0"
       prop_units="false"
       vertical_pattern="false"
       hide_knot="false"
       fuse_tolerance="0" />
    <inkscape:path-effect
       effect="skeletal"
       id="path-effect3221"
       is_visible="true"
       lpeversion="1"
       pattern="M 0,0 H 1"
       copytype="repeated"
       prop_scale="1"
       scale_y_rel="false"
       spacing="1"
       normal_offset="0"
       tang_offset="0"
       prop_units="false"
       vertical_pattern="false"
       hide_knot="false"
       fuse_tolerance="0" />
    <inkscape:path-effect
       effect="skeletal"
       id="path-effect3209"
       is_visible="true"
       lpeversion="1"
       pattern="#rect3163"
       copytype="single_stretched"
       prop_scale="1"
       scale_y_rel="false"
       spacing="0"
       normal_offset="0"
       tang_offset="0"
       prop_units="false"
       vertical_pattern="false"
       hide_knot="false"
       fuse_tolerance="0" />
    <pattern
       inkscape:collect="always"
       xlink:href="#pattern3186"
       id="pattern3196"
       patternTransform="translate(2.3051757e-6)" />
    <inkscape:perspective
       sodipodi:type="inkscape:persp3d"
       inkscape:vp_x="0 : 39.155763 : 1"
       inkscape:vp_y="0 : 1000 : 0"
       inkscape:vp_z="127.00023 : 39.155763 : 1"
       inkscape:persp3d-origin="63.500116 : 17.989055 : 1"
       id="perspective1927" />
    <pattern
       patternUnits="userSpaceOnUse"
       width="298.10998"
       height="298.10998"
       patternTransform="translate(90.945002,90.945002)"
       id="pattern3186">
      <circle
         style="fill:#808080;stroke:none;stroke-width:1.89001;stroke-dasharray:none;stroke-opacity:1"
         id="path246"
         cx="149.05499"
         cy="149.05499"
         r="149.05499" />
    </pattern>
    <pattern
       patternUnits="userSpaceOnUse"
       width="298.10998"
       height="298.10998"
       patternTransform="translate(90.944998,90.944998)"
       id="pattern3193">
      <rect
         style="fill:url(#pattern3196);stroke:none"
         width="298.10999"
         height="298.10999"
         x="0"
         y="0"
         id="rect3189" />
    </pattern>
  </defs>
  <g
     inkscape:label="Gear_Outline"
     inkscape:groupmode="layer"
     id="g3519"
     style="display:inline"
     transform="translate(29.108659,-12.175465)"
     sodipodi:insensitive="true">
    <path
       id="path3495"
       style="display:inline;fill:#000000;fill-opacity:1;stroke-width:0.581001;stroke-dasharray:none"
       inkscape:label="tooth1"
       d="m 61.582031,12.191406 c -1.918185,0.05737 -3.834319,0.19972 -5.734375,0.47461 -2.690816,3.757304 -4.500697,8.063445 -5.898437,12.447265 -1.365405,0.485096 -2.705704,1.039339 -4.017578,1.654297 -4.088854,-2.104271 -8.408411,-3.86752 -12.964844,-4.626953 -3.996581,3.054478 -7.590328,6.654274 -10.636719,10.650391 -0.294016,0.824955 0.210822,1.671361 0.296875,2.498046 0.906012,3.708479 2.399808,7.246484 4.144531,10.632813 -0.615388,1.315663 -1.172948,2.658107 -1.658203,4.027344 -4.384726,1.397286 -8.690139,3.209277 -12.449219,5.898437 -0.671409,4.974149 -0.656873,10.043085 0.0039,15.015625 0.349041,0.82223 1.331777,1.05819 1.982422,1.589844 3.262614,1.988232 6.827718,3.428375 10.458984,4.589844 0.485658,1.369086 1.042439,2.711858 1.658203,4.027343 -2.100759,4.076971 -3.851598,8.388076 -4.611328,12.931641 2.942076,3.839547 6.357498,7.312877 10.130859,10.333987 0.734204,0.80674 1.848414,0.2295 2.73183,0.0947 3.804534,-0.89013 7.428923,-2.42318 10.895123,-4.20605 1.31681,0.61964 2.664225,1.1736 4.035157,1.66211 1.396823,4.38492 3.209451,8.69005 5.898437,12.44922 4.992684,0.68388 10.071953,0.63415 15.06836,0.008 0.89912,-0.61621 1.279375,-1.70985 1.882949,-2.57786 1.812302,-3.10262 3.153196,-6.45873 4.244004,-9.87527 1.370788,-0.48886 2.718503,-1.04212 4.035156,-1.6621 4.079702,2.10278 8.394577,3.85485 12.941406,4.61523 3.970655,-3.06723 7.616956,-6.599466 10.654296,-10.589844 0.30979,-0.866141 -0.20741,-1.753803 -0.3086,-2.61914 -0.90542,-3.685651 -2.40327,-7.197799 -4.13281,-10.566407 0.61654,-1.314483 1.17286,-2.656842 1.6582,-4.02539 4.37516,-1.39721 8.67051,-3.206824 12.42383,-5.888672 0.62972,-4.97888 0.73766,-10.051681 0.0391,-15.027344 -0.38423,-0.833536 -1.38429,-1.090039 -2.06438,-1.629389 -3.24118,-1.959464 -6.77536,-3.389894 -10.37508,-4.542486 -0.49517,-1.374843 -1.0541,-2.726514 -1.67578,-4.048828 2.09981,-4.085818 3.86352,-8.400202 4.61914,-12.953125 -2.68565,-3.571476 -5.881464,-6.743344 -9.295933,-9.613147 -0.561974,-0.359862 -1.04141,-0.958318 -1.649996,-1.17892 -4.509713,0.760627 -8.784201,2.511176 -12.833363,4.592848 -1.319494,-0.622334 -2.669571,-1.177935 -4.042969,-1.669922 -1.396054,-4.363575 -3.201551,-8.645956 -5.876953,-12.390625 -3.16925,-0.459589 -6.377443,-0.563504 -9.576172,-0.501953 z" />
  </g>
  <g
     inkscape:label="Gear"
     inkscape:groupmode="layer"
     id="layer1"
     style="display:inline"
     transform="translate(29.108659,-12.175465)"
     sodipodi:insensitive="true">
    <path
       style="fill:url(#pattern3287);stroke:none"
       width="79.37516"
       height="79.37516"
       x="23.812548"
       y="23.812548"
       id="rect3198"
       sodipodi:type="rect"
       d="M 23.812548,23.812548 H 103.18771 V 103.18771 H 23.812548 Z" />
    <g
       id="g3371">
      <path
         id="rect3163"
         style="fill:#808080;stroke-width:0.581111"
         d="m 63.169406,13.229287 c -2.00402,0.0017 -4.429011,0.09621 -6.718785,0.42519 -4.10298,5.773413 -6.179687,14.102569 -6.179687,14.102569 h 9.176404 v 0.02426 H 76.72932 c 0,0 -2.076092,-8.329153 -6.179072,-14.102568 -0.964498,-0.138587 -1.953202,-0.235309 -2.924181,-0.301217 v -5.78e-4 c 0,0 -1.880064,-0.150087 -4.456661,-0.147722 z"
         inkscape:label="tooth1" />
      <path
         id="path3364"
         style="fill:#808080;stroke-width:0.581111"
         d="m 63.169406,113.77101 c -2.00402,-0.002 -4.429011,-0.0962 -6.718785,-0.42519 -4.10298,-5.77342 -6.179687,-14.102571 -6.179687,-14.102571 h 9.176404 v -0.0243 h 17.281987 c 0,0 -2.0761,8.329151 -6.17908,14.102561 -0.96449,0.13859 -1.9532,0.23531 -2.92418,0.30122 v 5.8e-4 c 0,0 -1.88006,0.15009 -4.456659,0.14772 z"
         inkscape:label="tooth2" />
    </g>
    <g
       id="g3377"
       transform="rotate(90,63.50013,63.500126)">
      <path
         id="path3373"
         style="fill:#808080;stroke-width:0.581111"
         d="m 63.169406,13.229287 c -2.00402,0.0017 -4.429011,0.09621 -6.718785,0.42519 -4.10298,5.773413 -6.179687,14.102569 -6.179687,14.102569 h 9.176404 v 0.02426 H 76.72932 c 0,0 -2.076092,-8.329153 -6.179072,-14.102568 -0.964498,-0.138587 -1.953202,-0.235309 -2.924181,-0.301217 v -5.78e-4 c 0,0 -1.880064,-0.150087 -4.456661,-0.147722 z"
         inkscape:label="tooth1" />
      <path
         id="path3375"
         style="fill:#808080;stroke-width:0.581111"
         d="m 63.169406,113.77101 c -2.00402,-0.002 -4.429011,-0.0962 -6.718785,-0.42519 -4.10298,-5.77342 -6.179687,-14.102571 -6.179687,-14.102571 h 9.176404 v -0.0243 h 17.281987 c 0,0 -2.0761,8.329151 -6.17908,14.102561 -0.96449,0.13859 -1.9532,0.23531 -2.92418,0.30122 v 5.8e-4 c 0,0 -1.88006,0.15009 -4.456659,0.14772 z"
         inkscape:label="tooth2" />
    </g>
    <g
       id="g3383"
       transform="rotate(135,63.50013,63.500126)">
      <path
         id="path3379"
         style="fill:#808080;stroke-width:0.581111"
         d="m 63.169406,13.229287 c -2.00402,0.0017 -4.429011,0.09621 -6.718785,0.42519 -4.10298,5.773413 -6.179687,14.102569 -6.179687,14.102569 h 9.176404 v 0.02426 H 76.72932 c 0,0 -2.076092,-8.329153 -6.179072,-14.102568 -0.964498,-0.138587 -1.953202,-0.235309 -2.924181,-0.301217 v -5.78e-4 c 0,0 -1.880064,-0.150087 -4.456661,-0.147722 z"
         inkscape:label="tooth1" />
      <path
         id="path3381"
         style="fill:#808080;stroke-width:0.581111"
         d="m 63.169406,113.77101 c -2.00402,-0.002 -4.429011,-0.0962 -6.718785,-0.42519 -4.10298,-5.77342 -6.179687,-14.102571 -6.179687,-14.102571 h 9.176404 v -0.0243 h 17.281987 c 0,0 -2.0761,8.329151 -6.17908,14.102561 -0.96449,0.13859 -1.9532,0.23531 -2.92418,0.30122 v 5.8e-4 c 0,0 -1.88006,0.15009 -4.456659,0.14772 z"
         inkscape:label="tooth2" />
    </g>
    <g
       id="g3389"
       transform="rotate(-135,63.496656,63.491757)">
      <path
         id="path3385"
         style="fill:#808080;stroke-width:0.581111"
         d="m 63.169406,13.229287 c -2.00402,0.0017 -4.429011,0.09621 -6.718785,0.42519 -4.10298,5.773413 -6.179687,14.102569 -6.179687,14.102569 h 9.176404 v 0.02426 H 76.72932 c 0,0 -2.076092,-8.329153 -6.179072,-14.102568 -0.964498,-0.138587 -1.953202,-0.235309 -2.924181,-0.301217 v -5.78e-4 c 0,0 -1.880064,-0.150087 -4.456661,-0.147722 z"
         inkscape:label="tooth1" />
      <path
         id="path3387"
         style="fill:#808080;stroke-width:0.581111"
         d="m 63.169406,113.77101 c -2.00402,-0.002 -4.429011,-0.0962 -6.718785,-0.42519 -4.10298,-5.77342 -6.179687,-14.102571 -6.179687,-14.102571 h 9.176404 v -0.0243 h 17.281987 c 0,0 -2.0761,8.329151 -6.17908,14.102561 -0.96449,0.13859 -1.9532,0.23531 -2.92418,0.30122 v 5.8e-4 c 0,0 -1.88006,0.15009 -4.456659,0.14772 z"
         inkscape:label="tooth2" />
    </g>
  </g>
  <g
     inkscape:groupmode="layer"
     id="layer2"
     inkscape:label="Wrench_Blue"
     transform="matrix(0.98248299,0,0,0.98248299,41.470813,-3.1389584)">
    <path
       id="path1696"
       style="display:inline;fill:#000000;fill-opacity:1;stroke-width:0.178237"
       d="m 34.395515,26.214784 c -2.645993,0.0365 -5.266116,0.907516 -7.397523,2.485557 -2.062525,1.470141 -3.62369,3.548962 -4.726266,5.818843 -0.709116,0.788692 0.248772,0.583167 0.842027,0.595133 2.850902,0 5.701847,0 8.552749,0 1.908524,1.337719 3.817049,2.675429 5.725571,4.013142 0,1.563547 0,3.127092 0,4.690634 -1.908522,1.337717 -3.817047,2.675431 -5.725571,4.013144 -3.239249,0 -6.478496,0 -9.717744,0 0.89989,1.744928 1.862481,3.48311 3.265891,4.877933 1.983151,2.033834 4.600816,3.454726 7.413823,3.879902 2.778256,0.405533 5.679254,-0.167401 8.100974,-1.596708 2.633663,-1.525928 4.691325,-3.9643 5.918854,-6.746308 10.019032,-0.04233 20.076037,0.01628 30.10857,-0.02921 2.847765,-0.102573 5.180745,-2.777685 5.136366,-5.59769 0.0039,-1.784942 0.188749,-3.730065 -0.859949,-5.292058 -1.065099,-1.81909 -3.211705,-2.805771 -5.281236,-2.613862 -9.699018,0 -19.398038,0 -29.097079,0 -1.153867,-2.628946 -3.049949,-4.931792 -5.463067,-6.48644 -1.979677,-1.257966 -4.291549,-1.965865 -6.636171,-2.005635 -0.05381,0.01 -0.106923,-0.02061 -0.160219,-0.0065 z" />
    <path
       id="path504"
       style="display:inline;fill:#0013cb;fill-opacity:1;stroke-width:0.181762"
       d="m 34.542981,25.718863 a 13.427014,15.000071 0 0 0 -11.864416,8.000044 h 9.206692 l 6.215137,4.337729 v 5.324233 l -6.215137,4.338246 h -9.206692 a 13.427014,15.000071 0 0 0 11.864416,8.000044 13.427014,15.000071 0 0 0 12.163623,-8.650135 h 30.768727 c 2.796952,0 5.048281,-2.339991 5.048281,-5.246719 v -2.206588 c 0,-2.906728 -2.251329,-5.246719 -5.048281,-5.246719 H 46.706604 A 13.427014,15.000071 0 0 0 34.542981,25.718863 Z" />
  </g>
  <g
     inkscape:groupmode="layer"
     id="g1750"
     inkscape:label="Wrench_Yellow"
     transform="matrix(-0.98248299,0,0,0.98248299,143.74666,23.806262)">
    <path
       id="path1746"
       style="display:inline;fill:#000000;fill-opacity:1;stroke-width:0.178592"
       d="m 34.445911,27.238129 c -2.656693,0.0365 -5.287409,0.907516 -7.427417,2.485558 -2.070882,1.470142 -3.638358,3.548963 -4.745378,5.818845 -0.711962,0.788692 0.249793,0.583167 0.845421,0.595131 2.862449,0 5.724899,0 8.587342,0 1.916227,1.33772 3.832462,2.675432 5.74869,4.013145 0,1.563548 0,3.127092 0,4.690635 -1.916228,1.337717 -3.832463,2.675431 -5.74869,4.013146 -3.252345,0 -6.504687,0 -9.757036,0 0.903521,1.744928 1.87003,3.483111 3.2791,4.877935 1.991179,2.033833 4.619392,3.454727 7.443791,3.879903 2.789494,0.405533 5.702219,-0.167403 8.133702,-1.59671 2.644311,-1.525928 4.710298,-3.9643 5.942788,-6.74631 10.059533,-0.04233 20.157191,0.01628 30.230284,-0.0292 2.85928,-0.102571 5.201687,-2.777686 5.157132,-5.597691 0.0039,-1.784942 0.189504,-3.730067 -0.863433,-5.292059 -1.069424,-1.819091 -3.224694,-2.805773 -5.302584,-2.613863 -9.738236,0 -19.476454,0 -29.2147,0 -1.158523,-2.628948 -3.062279,-4.931794 -5.485152,-6.486442 -1.98768,-1.257967 -4.308886,-1.965866 -6.663001,-2.005636 -0.05401,0.01 -0.107362,-0.02061 -0.160859,-0.0065 z" />
    <path
       id="path1748"
       style="display:inline;fill:#cbca00;fill-opacity:1;stroke-width:0.181762"
       d="m 34.569873,26.742091 a 13.427014,15.000071 0 0 0 -11.864416,8.000044 h 9.206692 l 6.215137,4.337729 v 5.324233 l -6.215137,4.338246 h -9.206692 a 13.427014,15.000071 0 0 0 11.864416,8.000044 13.427014,15.000071 0 0 0 12.163623,-8.650135 h 30.768727 c 2.796952,0 5.048281,-2.339991 5.048281,-5.246719 v -2.206588 c 0,-2.906728 -2.251329,-5.246719 -5.048281,-5.246719 H 46.733496 A 13.427014,15.000071 0 0 0 34.569873,26.742091 Z" />
  </g>
</svg>
